#!OML:ASF F:\VICON\USERDATA\INSTALL\rory3\rory3.ASF
:FULLY-SPECIFIED
:DEGREES
166
root 1.07591 17.6248 -16.0965 11.0672 -1.3103 -2.06617
lowerback 12.6148 -0.404613 1.42407
upperback 0.962357 -0.0926901 3.81295
thorax -6.06689 -0.0337988 3.23736
lowerneck -17.1245 -4.18863 -10.0482
upperneck 25.1691 -4.37154 5.00142
head 11.3705 -2.32386 2.88026
rclavicle -5.56597e-015 3.57812e-014
rhumerus -33.2005 -3.84224 -81.6442
rradius 49.1307
rwrist -2.58991
rhand -13.3372 16.5199
rfingers 7.12502
rthumb 12.7681 -13.0697
lclavicle -5.56597e-015 3.57812e-014
lhumerus -31.5473 4.02765 87.9321
lradius 44.5343
lwrist 1.13207
lhand -15.8124 24.6825
lfingers 7.12502
lthumb 10.3812 54.4063
rfemur -23.0142 3.89402 23.5902
rtibia 29.5665
rfoot -12.0254 -10.0042
rtoes 9.75111
lfemur -26.3835 -4.58338 -18.7155
ltibia 32.9533
lfoot -14.1933 6.01884
ltoes 1.51244
167
root 1.07642 17.6002 -16.1224 11.4159 -1.42143 -2.03299
lowerback 12.93 -0.358221 1.19443
upperback 1.0132 -0.0483111 3.90477
thorax -6.19084 -0.00430981 3.46278
lowerneck -17.4039 -4.19001 -10.086
upperneck 25.1387 -4.32503 4.98502
head 11.4109 -2.30406 2.8845
rclavicle -5.56597e-015 1.66979e-014
rhumerus -32.8757 -3.44281 -81.6279
rradius 49.5924
rwrist -2.88575
rhand -13.41 16.8196
rfingers 7.12502
rthumb 12.6979 -12.7744
lclavicle -5.56597e-015 1.66979e-014
lhumerus -31.4973 4.29717 87.9429
lradius 45.4745
lwrist 0.555781
lhand -16.1423 26.0059
lfingers 7.12502
lthumb 10.0629 55.7453
rfemur -23.9613 3.87728 23.5427
rtibia 30.394
rfoot -12.2117 -9.97613
rtoes 9.40285
lfemur -27.3411 -4.52184 -18.7352
ltibia 33.782
lfoot -14.3515 6.13212
ltoes 1.8436
168
root 1.0778 17.5678 -16.1466 11.8113 -1.49626 -2.07926
lowerback 13.2543 -0.318845 1.07634
upperback 0.952224 0.0071644 3.99993
thorax -6.44003 0.0293941 3.62906
lowerneck -17.4053 -4.13429 -10.0351
upperneck 25.1027 -4.23685 4.90495
head 11.3865 -2.26859 2.85923
rclavicle -8.74653e-015 -3.57812e-014
rhumerus -32.8215 -3.09182 -81.5976
rradius 50.1342
rwrist -3.0484
rhand -13.4259 16.5639
rfingers 7.12502
rthumb 12.6826 -13.031
lclavicle -8.74653e-015 -3.57812e-014
lhumerus -31.8277 4.64871 87.8524
lradius 46.7489
lwrist -0.719187
lhand -15.4472 28.1387
lfingers 7.12502
lthumb 10.7334 57.8445
rfemur -24.965 3.70161 23.6542
rtibia 31.2506
rfoot -12.3279 -10.0868
rtoes 5.01603
lfemur -28.3379 -4.36136 -18.6924
ltibia 34.6135
lfoot -14.571 6.15993
ltoes 2.01399
169
root 1.08062 17.5366 -16.1728 12.1317 -1.50491 -2.11559
lowerback 13.6565 -0.245299 1.13425
upperback 0.985518 0.123765 3.96077
thorax -6.63539 0.0851718 3.53899
lowerneck -17.3903 -4.16445 -9.88981
upperneck 24.8698 -4.32091 4.91893
head 11.2983 -2.28716 2.82389
rclavicle 2.38542e-015 -1.59028e-014
rhumerus -32.7249 -3.16324 -81.6558
rradius 50.7959
rwrist -3.05268
rhand -13.3631 15.3679
rfingers 7.12502
rthumb 12.7432 -14.2232
lclavicle 2.38542e-015 -1.59028e-014
lhumerus -31.8739 4.4232 87.803
lradius 47.8224
lwrist -1.02362
lhand -13.1207 29.7212
lfingers 7.12502
lthumb 12.9769 59.2977
rfemur -25.8906 3.49676 23.7406
rtibia 32.122
rfoot -12.4839 -10.0802
rtoes 2.74108
lfemur -29.2409 -4.21655 -18.6534
ltibia 35.4124
lfoot -14.7811 5.99768
ltoes 2.71349
170
root 1.07931 17.5104 -16.206 12.4309 -1.55693 -2.12437
lowerback 14.0756 -0.14544 1.10192
upperback 1.10934 0.257042 3.90773
thorax -6.74386 0.150194 3.47937
lowerneck -17.4437 -4.25799 -9.85545
upperneck 24.512 -4.49699 5.1019
head 11.1917 -2.33478 2.85329
rclavicle -4.37326e-015 -4.77083e-015
rhumerus -32.3866 -3.33881 -81.7403
rradius 51.3442
rwrist -3.00998
rhand -13.6216 14.3775
rfingers 7.12502
rthumb 12.4939 -15.229
lclavicle -4.37326e-015 -4.77083e-015
lhumerus -31.6421 3.86074 87.8999
lradius 48.4815
lwrist 0.835109
lhand -13.4951 28.1525
lfingers 7.12502
lthumb 12.6159 57.7515
rfemur -26.8104 3.43232 23.7576
rtibia 32.979
rfoot -12.6805 -9.99367
rtoes 2.72269
lfemur -30.1573 -4.01195 -18.6338
ltibia 36.1832
lfoot -14.9282 5.84218
ltoes 2.85542
171
root 1.08007 17.4836 -16.2393 12.835 -1.71004 -2.03291
lowerback 14.45 -0.0799207 0.868284
upperback 1.11892 0.317509 3.8894
thorax -6.94661 0.187574 3.58665
lowerneck -17.4523 -4.22272 -9.82099
upperneck 24.2812 -4.47248 5.18841
head 11.105 -2.30667 2.87995
rclavicle -4.37326e-015 1.35174e-014
rhumerus -32.2706 -3.14585 -81.794
rradius 52.0163
rwrist -3.06752
rhand -13.8208 13.9778
rfingers 7.12502
rthumb 12.3019 -15.6404
lclavicle -4.37326e-015 1.35174e-014
lhumerus -31.8169 3.67501 87.9192
lradius 49.4628
lwrist 2.39162
lhand -14.8051 27.3816
lfingers 7.12502
lthumb 11.3527 57.0543
rfemur -27.8961 3.3502 23.6493
rtibia 33.8683
rfoot -12.9195 -9.80378
rtoes 2.86413
lfemur -31.1458 -3.70187 -18.7642
ltibia 36.8941
lfoot -15.0492 5.71598
ltoes 2.71117
172
root 1.0796 17.4558 -16.269 13.209 -1.76033 -1.99423
lowerback 14.8235 -0.0651047 0.725836
upperback 1.17601 0.323931 3.89673
thorax -7.09473 0.195845 3.67946
lowerneck -17.5819 -4.12314 -9.66715
upperneck 24.1187 -4.33894 5.1192
head 11.0514 -2.23636 2.84554
rclavicle 1.07344e-014 -1.59028e-015
rhumerus -32.1981 -2.94618 -81.8405
rradius 52.805
rwrist -3.24385
rhand -13.9177 14.5189
rfingers 7.12502
rthumb 12.2085 -15.1048
lclavicle 1.07344e-014 -1.59028e-015
lhumerus -31.8873 3.69065 87.8507
lradius 50.4181
lwrist 3.24379
lhand -15.3105 26.1615
lfingers 7.12502
lthumb 10.8653 55.8604
rfemur -28.9726 3.26401 23.5876
rtibia 34.8076
rfoot -13.2977 -9.61335
rtoes 4.41444
lfemur -32.0712 -3.413 -18.8344
ltibia 37.5637
lfoot -15.2163 5.58411
ltoes 2.49238
173
root 1.07566 17.4245 -16.3006 13.4737 -1.67872 -1.97184
lowerback 15.2226 -0.01187 0.723968
upperback 1.43911 0.392549 3.85258
thorax -7.03777 0.226055 3.61986
lowerneck -18.1331 -4.15894 -9.42129
upperneck 23.9422 -4.38071 5.05075
head 11.0872 -2.23055 2.76514
rclavicle -1.39149e-014 -7.15625e-015
rhumerus -31.6961 -3.19573 -81.8661
rradius 53.4289
rwrist -3.28985
rhand -14.2331 15.8187
rfingers 7.12502
rthumb 11.9043 -13.8229
lclavicle -1.39149e-014 -7.15625e-015
lhumerus -31.4232 3.46389 87.8118
lradius 51.25
lwrist 3.70467
lhand -15.3958 25.5966
lfingers 7.12502
lthumb 10.783 55.2998
rfemur -29.9493 3.18856 23.5708
rtibia 35.8391
rfoot -13.7156 -9.57079
rtoes 5.98092
lfemur -32.8884 -3.31722 -18.832
ltibia 38.2184
lfoot -15.4204 5.54832
ltoes 1.68862
